<svg width="65" height="34" viewBox="0 0 65 34" fill="none" xmlns="http://www.w3.org/2000/svg">
<path d="M1.59261 33.9629H1.13965V29.6758H1.59261V33.9629ZM4.31802 31.9852H1.54412V31.5871H4.31802V31.9852ZM4.27464 29.6758H4.72122V33.9629H4.27464V29.6758Z" fill="white"/>
<path d="M8.29902 34.0002C7.97621 34.0002 7.67764 33.9466 7.40203 33.8382C7.12643 33.7297 6.88783 33.5766 6.68495 33.3788C6.48336 33.1811 6.32514 32.9501 6.21286 32.6873C6.10058 32.4244 6.04443 32.1348 6.04443 31.8209C6.04443 31.507 6.10058 31.2174 6.21286 30.9545C6.32514 30.6917 6.48208 30.4608 6.68495 30.263C6.88783 30.0652 7.12515 29.9121 7.39821 29.8036C7.67126 29.6952 7.97238 29.6416 8.29902 29.6416C8.62183 29.6416 8.91913 29.6952 9.19346 29.8036C9.46651 29.9121 9.70511 30.0639 9.90671 30.2604C10.1083 30.4569 10.2665 30.6866 10.3788 30.952C10.4911 31.2174 10.5472 31.507 10.5472 31.8222C10.5472 32.1373 10.4911 32.427 10.3788 32.6924C10.2665 32.9578 10.1096 33.1887 9.90671 33.3839C9.70511 33.5804 9.46651 33.7323 9.19346 33.8407C8.91913 33.9466 8.62056 34.0002 8.29902 34.0002ZM8.29902 33.5957C8.55676 33.5957 8.79409 33.5524 9.01227 33.4643C9.23046 33.3763 9.42057 33.2525 9.58134 33.0905C9.74211 32.9297 9.86843 32.7409 9.95774 32.5265C10.0471 32.3121 10.093 32.0761 10.093 31.8196C10.093 31.5619 10.0483 31.3271 9.95774 31.1128C9.86843 30.8984 9.74211 30.7108 9.58134 30.5488C9.42057 30.388 9.23046 30.263 9.01227 30.1749C8.79409 30.0869 8.55548 30.0435 8.29902 30.0435C8.04128 30.0435 7.80268 30.0869 7.58194 30.1749C7.3612 30.263 7.17109 30.388 7.00904 30.5488C6.84828 30.7096 6.72068 30.8984 6.62881 31.1128C6.53695 31.3271 6.49101 31.5632 6.49101 31.8196C6.49101 32.0723 6.53695 32.307 6.62881 32.5239C6.72068 32.7409 6.847 32.9297 7.00904 33.0905C7.16981 33.2512 7.3612 33.3763 7.58194 33.4643C7.80268 33.5524 8.04128 33.5957 8.29902 33.5957Z" fill="white"/>
<path d="M11.8691 33.9629V29.6758H12.243L14.2028 33.02H14.0063L15.9483 29.6758H16.3222V33.9629H15.8871V30.3559H15.9917L14.2028 33.4181H13.9885L12.1881 30.3559H12.3042V33.9629H11.8691Z" fill="white"/>
<path d="M18.4771 33.5712H21.0558V33.9629H18.0242V29.6758H20.9639V30.0675H18.4771V33.5712ZM18.4286 31.5922H20.6947V31.9776H18.4286V31.5922Z" fill="white"/>
<path d="M26.2121 34.0002C25.8893 34.0002 25.5907 33.9466 25.3151 33.8382C25.0395 33.7297 24.8009 33.5766 24.598 33.3788C24.3964 33.1811 24.2382 32.9501 24.1259 32.6873C24.0137 32.4244 23.9575 32.1348 23.9575 31.8209C23.9575 31.507 24.0137 31.2174 24.1259 30.9545C24.2382 30.6917 24.3952 30.4608 24.598 30.263C24.8009 30.0652 25.0382 29.9121 25.3113 29.8036C25.5843 29.6952 25.8855 29.6416 26.2121 29.6416C26.5349 29.6416 26.8322 29.6952 27.1065 29.8036C27.3796 29.9121 27.6182 30.0639 27.8198 30.2604C28.0214 30.4569 28.1796 30.6866 28.2919 30.952C28.4042 31.2174 28.4603 31.507 28.4603 31.8222C28.4603 32.1373 28.4042 32.427 28.2919 32.6924C28.1796 32.9578 28.0227 33.1887 27.8198 33.3839C27.6182 33.5804 27.3796 33.7323 27.1065 33.8407C26.8335 33.9466 26.5349 34.0002 26.2121 34.0002ZM26.2121 33.5957C26.4698 33.5957 26.7072 33.5524 26.9254 33.4643C27.1435 33.3763 27.3337 33.2525 27.4944 33.0905C27.6552 32.9297 27.7815 32.7409 27.8708 32.5265C27.9601 32.3121 28.0061 32.0761 28.0061 31.8196C28.0061 31.5619 27.9614 31.3271 27.8708 31.1128C27.7815 30.8984 27.6552 30.7108 27.4944 30.5488C27.3337 30.388 27.1435 30.263 26.9254 30.1749C26.7072 30.0869 26.4686 30.0435 26.2121 30.0435C25.9544 30.0435 25.7158 30.0869 25.495 30.1749C25.2743 30.263 25.0842 30.388 24.9221 30.5488C24.7614 30.7096 24.6338 30.8984 24.5419 31.1128C24.45 31.3271 24.4041 31.5632 24.4041 31.8196C24.4041 32.0723 24.45 32.307 24.5419 32.5239C24.6338 32.7409 24.7601 32.9297 24.9221 33.0905C25.0829 33.2512 25.2743 33.3763 25.495 33.4643C25.717 33.5524 25.9556 33.5957 26.2121 33.5957Z" fill="white"/>
<path d="M30.2364 33.9629H29.7834V29.6758H32.7232V30.0675H30.2364V33.9629ZM30.1879 31.7517H32.454V32.1435H30.1879V31.7517Z" fill="white"/>
<path d="M35.877 33.9629V29.6758H36.3299V33.9629H35.877ZM36.2687 32.8975L36.2508 32.3463L38.8473 29.6758H39.3679L37.4757 31.6599L37.218 31.9355L36.2687 32.8975ZM38.9571 33.9629L37.107 31.8321L37.4132 31.5017L39.4955 33.9642H38.9571V33.9629Z" fill="white"/>
<path d="M42.258 34.0002C41.9352 34.0002 41.6366 33.9466 41.361 33.8382C41.0854 33.7297 40.8468 33.5766 40.6439 33.3788C40.4423 33.1811 40.2841 32.9501 40.1718 32.6873C40.0596 32.4244 40.0034 32.1348 40.0034 31.8209C40.0034 31.507 40.0596 31.2174 40.1718 30.9545C40.2841 30.6917 40.4411 30.4608 40.6439 30.263C40.8468 30.0652 41.0841 29.9121 41.3572 29.8036C41.6302 29.6952 41.9314 29.6416 42.258 29.6416C42.5808 29.6416 42.8781 29.6952 43.1524 29.8036C43.4255 29.9121 43.6641 30.0639 43.8657 30.2604C44.0673 30.4569 44.2255 30.6866 44.3378 30.952C44.4501 31.2174 44.5062 31.507 44.5062 31.8222C44.5062 32.1373 44.4501 32.427 44.3378 32.6924C44.2255 32.9578 44.0686 33.1887 43.8657 33.3839C43.6641 33.5804 43.4255 33.7323 43.1524 33.8407C42.8794 33.9466 42.5808 34.0002 42.258 34.0002ZM42.258 33.5957C42.5157 33.5957 42.7531 33.5524 42.9713 33.4643C43.1894 33.3763 43.3796 33.2525 43.5403 33.0905C43.7011 32.9297 43.8274 32.7409 43.9167 32.5265C44.006 32.3121 44.052 32.0761 44.052 31.8196C44.052 31.5619 44.0073 31.3271 43.9167 31.1128C43.8274 30.8984 43.7011 30.7108 43.5403 30.5488C43.3796 30.388 43.1894 30.263 42.9713 30.1749C42.7531 30.0869 42.5145 30.0435 42.258 30.0435C42.0003 30.0435 41.7617 30.0869 41.5409 30.1749C41.3202 30.263 41.1301 30.388 40.968 30.5488C40.8073 30.7096 40.6797 30.8984 40.5878 31.1128C40.4959 31.3271 40.45 31.5632 40.45 31.8196C40.45 32.0723 40.4959 32.307 40.5878 32.5239C40.6797 32.7409 40.806 32.9297 40.968 33.0905C41.1288 33.2512 41.3202 33.3763 41.5409 33.4643C41.7629 33.5524 42.0015 33.5957 42.258 33.5957Z" fill="white"/>
<path d="M45.8293 33.9629V29.6758H47.4345C47.7981 29.6758 48.1107 29.7345 48.371 29.8506C48.6326 29.9667 48.8329 30.1338 48.9745 30.3533C49.1149 30.5715 49.1863 30.8356 49.1863 31.1469C49.1863 31.4493 49.1162 31.7096 48.9745 31.9278C48.8342 32.146 48.6326 32.3132 48.371 32.4305C48.1095 32.5467 47.7968 32.6053 47.4345 32.6053H46.0807L46.2823 32.3974V33.9655H45.8293V33.9629ZM46.2823 32.4318L46.0807 32.2175H47.4217C47.8504 32.2175 48.1758 32.123 48.3991 31.9355C48.6211 31.7479 48.7334 31.4838 48.7334 31.1457C48.7334 30.8024 48.6224 30.537 48.3991 30.3495C48.1758 30.1619 47.8504 30.0675 47.4217 30.0675H46.0807L46.2823 29.8531V32.4318ZM48.7564 33.9629L47.6539 32.4076H48.1439L49.2527 33.9629H48.7564Z" fill="white"/>
<path d="M51.0162 33.5712H53.5949V33.9629H50.5632V29.6758H53.503V30.0675H51.0162V33.5712ZM50.9677 31.5922H53.2338V31.9776H50.9677V31.5922Z" fill="white"/>
<path d="M54.2812 33.9629L56.2411 29.6758H56.6877L58.6475 33.9629H58.1703L56.37 29.9386H56.5537L54.7533 33.9629H54.2812ZM55.0519 32.8184L55.1872 32.451H57.6804L57.8156 32.8184H55.0519Z" fill="white"/>
<path d="M59.6646 33.9629V29.6758H60.0384L62.996 33.399H62.7995V29.6758H63.2461V33.9629H62.8723L59.9197 30.2398H60.1162V33.9629H59.6646Z" fill="white"/>
<path d="M51.3812 7.28838C50.4459 8.36655 49.5106 9.44344 48.5766 10.5216C48.3176 10.8317 47.843 11.3038 47.1131 11.6062C47.0557 11.6304 46.997 11.6521 46.9396 11.6725V4.25547C46.9779 0.000205159 42.3679 0.136727 42.3679 0.136727C43.0467 1.54026 43.0021 2.76262 43.0021 4.25547L43.0467 19.2835C43.0467 20.2787 43.0021 22.9506 42.4126 23.6294H47.5725C47.0749 22.6788 46.9383 21.593 46.9383 20.5518V12.6167C47.154 12.595 47.3773 12.5606 47.6095 12.507C48.458 12.3118 49.1036 11.8282 49.4634 11.5079L58.4652 22.0434C60.0231 23.8182 63.1772 24.1627 64.6918 22.7707L51.3812 7.28838Z" fill="white"/>
<path d="M59.7974 6.56289C61.0172 6.58713 61.8619 5.88791 62.3442 5.15552C63.3369 3.64991 62.8329 1.38129 61.4472 0.486858C60.4469 -0.158768 57.9065 -0.094972 55.7336 2.2719C55.1275 2.93284 54.2305 3.79027 53.3616 5.00624C53.6372 4.82888 54.2841 4.50224 55.1849 4.42569C57.7227 4.21005 57.3425 6.5144 59.7974 6.56289Z" fill="white"/>
<path d="M19.6448 11.8599C19.6448 5.65879 23.3118 0 30.0105 0C36.7092 0 40.3763 5.74939 40.3763 11.9505C40.3763 18.1069 36.7551 23.8103 30.0552 23.8103C23.3565 23.8103 19.6448 18.1069 19.6448 11.8599ZM35.9398 11.8139C35.9398 8.374 34.8081 0.678794 30.1011 0.678794C25.213 0.678794 24.0812 8.41993 24.0812 11.9951C24.0812 15.481 25.1671 23.1303 30.0105 23.1303C34.854 23.1303 35.9398 15.3457 35.9398 11.8139Z" fill="white"/>
<path d="M29.9291 9.55811C29.3983 10.4449 28.6889 11.2219 27.7268 11.842C28.7616 12.4213 29.5437 13.215 30.0924 14.2076C30.5249 13.1601 31.3007 12.4073 32.2947 11.842C31.2191 11.2832 30.4382 10.5163 29.9291 9.55811Z" fill="white"/>
<path d="M17.02 4.25527C17.02 2.76114 16.9754 1.53878 17.6542 0.136523C17.6542 0.136523 13.0786 0.136527 13.0825 4.25527L13.108 12.8462C11.8231 11.6978 9.17937 9.78902 5.65777 9.61677C5.28392 9.59891 4.92155 9.58104 4.57194 9.56445V4.25399C4.58087 0.13525 0.000244141 0.135254 0.000244141 0.135254C0.679045 1.53879 0.634387 2.76114 0.634387 4.25399L0.679042 19.282C0.679042 20.2773 0.634384 22.9491 0.044899 23.6279H5.20481C4.70719 22.6773 4.57066 21.5915 4.57066 20.5503V12.5106C6.20387 12.1597 9.44859 11.5881 13.108 13.2711L13.1259 19.2833C13.1259 20.2785 13.0799 22.9504 12.4917 23.6292H17.6516C17.154 22.6786 17.0175 21.5927 17.0175 20.5516V4.25527H17.02Z" fill="white"/>
</svg>
