<svg width="13" height="13" viewBox="0 0 13 13" fill="none" xmlns="http://www.w3.org/2000/svg">
<path d="M6.17532 3.54541C7.89797 3.54541 9.31985 4.96729 9.31985 6.68994C9.31985 8.43994 7.89797 9.83447 6.17532 9.83447C4.42532 9.83447 3.03079 8.43994 3.03079 6.68994C3.03079 4.96729 4.42532 3.54541 6.17532 3.54541ZM6.17532 8.74072C7.29641 8.74072 8.19875 7.83838 8.19875 6.68994C8.19875 5.56885 7.29641 4.6665 6.17532 4.6665C5.02688 4.6665 4.12454 5.56885 4.12454 6.68994C4.12454 7.83838 5.05422 8.74072 6.17532 8.74072ZM10.1675 3.43604C10.1675 3.84619 9.83938 4.17432 9.42922 4.17432C9.01907 4.17432 8.69094 3.84619 8.69094 3.43604C8.69094 3.02588 9.01907 2.69775 9.42922 2.69775C9.83938 2.69775 10.1675 3.02588 10.1675 3.43604ZM12.2456 4.17432C12.3003 5.18604 12.3003 8.22119 12.2456 9.23291C12.1909 10.2173 11.9722 11.0649 11.2613 11.8032C10.5503 12.5142 9.67532 12.7329 8.69094 12.7876C7.67922 12.8423 4.64407 12.8423 3.63235 12.7876C2.64797 12.7329 1.80032 12.5142 1.06204 11.8032C0.351099 11.0649 0.132349 10.2173 0.077661 9.23291C0.0229735 8.22119 0.0229735 5.18604 0.077661 4.17432C0.132349 3.18994 0.351099 2.31494 1.06204 1.604C1.80032 0.893066 2.64797 0.674316 3.63235 0.619629C4.64407 0.564941 7.67922 0.564941 8.69094 0.619629C9.67532 0.674316 10.5503 0.893066 11.2613 1.604C11.9722 2.31494 12.1909 3.18994 12.2456 4.17432ZM10.9331 10.2993C11.2613 9.50635 11.1792 7.59229 11.1792 6.68994C11.1792 5.81494 11.2613 3.90088 10.9331 3.08057C10.7144 2.56104 10.3042 2.12354 9.78469 1.93213C8.96438 1.604 7.05032 1.68604 6.17532 1.68604C5.27297 1.68604 3.35891 1.604 2.56594 1.93213C2.01907 2.15088 1.60891 2.56104 1.39016 3.08057C1.06204 3.90088 1.14407 5.81494 1.14407 6.68994C1.14407 7.59229 1.06204 9.50635 1.39016 10.2993C1.60891 10.8462 2.01907 11.2563 2.56594 11.4751C3.35891 11.8032 5.27297 11.7212 6.17532 11.7212C7.05032 11.7212 8.96438 11.8032 9.78469 11.4751C10.3042 11.2563 10.7417 10.8462 10.9331 10.2993Z" fill="#2D1801"/>
</svg>
