<svg width="65" height="35" viewBox="0 0 65 35" fill="none" xmlns="http://www.w3.org/2000/svg">
<path d="M1.59261 34.9129H1.13965V30.6257H1.59261V34.9129ZM4.31802 32.9352H1.54412V32.5371H4.31802V32.9352ZM4.27464 30.6257H4.72122V34.9129H4.27464V30.6257Z" fill="black"/>
<path d="M8.29902 34.9499C7.97621 34.9499 7.67764 34.8963 7.40203 34.7879C7.12643 34.6794 6.88783 34.5263 6.68495 34.3285C6.48336 34.1308 6.32514 33.8998 6.21286 33.637C6.10058 33.3741 6.04443 33.0845 6.04443 32.7706C6.04443 32.4567 6.10058 32.1671 6.21286 31.9042C6.32514 31.6414 6.48208 31.4105 6.68495 31.2127C6.88783 31.0149 7.12515 30.8618 7.39821 30.7533C7.67126 30.6449 7.97238 30.5913 8.29902 30.5913C8.62183 30.5913 8.91913 30.6449 9.19346 30.7533C9.46651 30.8618 9.70511 31.0136 9.90671 31.2101C10.1083 31.4066 10.2665 31.6363 10.3788 31.9017C10.4911 32.1671 10.5472 32.4567 10.5472 32.7719C10.5472 33.087 10.4911 33.3767 10.3788 33.6421C10.2665 33.9075 10.1096 34.1384 9.90671 34.3336C9.70511 34.5301 9.46651 34.682 9.19346 34.7904C8.91913 34.8963 8.62056 34.9499 8.29902 34.9499ZM8.29902 34.5454C8.55676 34.5454 8.79409 34.5021 9.01227 34.414C9.23046 34.326 9.42057 34.2022 9.58134 34.0402C9.74211 33.8794 9.86843 33.6906 9.95774 33.4762C10.0471 33.2619 10.093 33.0258 10.093 32.7693C10.093 32.5116 10.0483 32.2768 9.95774 32.0625C9.86843 31.8481 9.74211 31.6605 9.58134 31.4985C9.42057 31.3377 9.23046 31.2127 9.01227 31.1247C8.79409 31.0366 8.55548 30.9932 8.29902 30.9932C8.04128 30.9932 7.80268 31.0366 7.58194 31.1247C7.3612 31.2127 7.17109 31.3377 7.00904 31.4985C6.84828 31.6593 6.72068 31.8481 6.62881 32.0625C6.53695 32.2768 6.49101 32.5129 6.49101 32.7693C6.49101 33.022 6.53695 33.2567 6.62881 33.4737C6.72068 33.6906 6.847 33.8794 7.00904 34.0402C7.16981 34.2009 7.3612 34.326 7.58194 34.414C7.80268 34.5021 8.04128 34.5454 8.29902 34.5454Z" fill="black"/>
<path d="M11.8691 34.9129V30.6257H12.243L14.2028 33.97H14.0063L15.9483 30.6257H16.3222V34.9129H15.8871V31.3058H15.9917L14.2028 34.3681H13.9885L12.1881 31.3058H12.3042V34.9129H11.8691Z" fill="black"/>
<path d="M18.4774 34.5212H21.0561V34.9129H18.0244V30.6257H20.9642V31.0174H18.4774V34.5212ZM18.4289 32.5422H20.695V32.9275H18.4289V32.5422Z" fill="black"/>
<path d="M26.2121 34.9499C25.8893 34.9499 25.5907 34.8963 25.3151 34.7879C25.0395 34.6794 24.8009 34.5263 24.598 34.3285C24.3964 34.1308 24.2382 33.8998 24.1259 33.637C24.0137 33.3741 23.9575 33.0845 23.9575 32.7706C23.9575 32.4567 24.0137 32.1671 24.1259 31.9042C24.2382 31.6414 24.3952 31.4105 24.598 31.2127C24.8009 31.0149 25.0382 30.8618 25.3113 30.7533C25.5843 30.6449 25.8855 30.5913 26.2121 30.5913C26.5349 30.5913 26.8322 30.6449 27.1065 30.7533C27.3796 30.8618 27.6182 31.0136 27.8198 31.2101C28.0214 31.4066 28.1796 31.6363 28.2919 31.9017C28.4042 32.1671 28.4603 32.4567 28.4603 32.7719C28.4603 33.087 28.4042 33.3767 28.2919 33.6421C28.1796 33.9075 28.0227 34.1384 27.8198 34.3336C27.6182 34.5301 27.3796 34.682 27.1065 34.7904C26.8335 34.8963 26.5349 34.9499 26.2121 34.9499ZM26.2121 34.5454C26.4698 34.5454 26.7072 34.5021 26.9254 34.414C27.1435 34.326 27.3337 34.2022 27.4944 34.0402C27.6552 33.8794 27.7815 33.6906 27.8708 33.4762C27.9601 33.2619 28.0061 33.0258 28.0061 32.7693C28.0061 32.5116 27.9614 32.2768 27.8708 32.0625C27.7815 31.8481 27.6552 31.6605 27.4944 31.4985C27.3337 31.3377 27.1435 31.2127 26.9254 31.1247C26.7072 31.0366 26.4686 30.9932 26.2121 30.9932C25.9544 30.9932 25.7158 31.0366 25.495 31.1247C25.2743 31.2127 25.0842 31.3377 24.9221 31.4985C24.7614 31.6593 24.6338 31.8481 24.5419 32.0625C24.45 32.2768 24.4041 32.5129 24.4041 32.7693C24.4041 33.022 24.45 33.2567 24.5419 33.4737C24.6338 33.6906 24.7601 33.8794 24.9221 34.0402C25.0829 34.2009 25.2743 34.326 25.495 34.414C25.717 34.5021 25.9556 34.5454 26.2121 34.5454Z" fill="black"/>
<path d="M30.2362 34.9129H29.7832V30.6257H32.723V31.0174H30.2362V34.9129ZM30.1877 32.7017H32.4537V33.0934H30.1877V32.7017Z" fill="black"/>
<path d="M35.877 34.9129V30.6257H36.3299V34.9129H35.877ZM36.2687 33.8475L36.2508 33.2963L38.8473 30.6257H39.3679L37.4757 32.6098L37.218 32.8854L36.2687 33.8475ZM38.9571 34.9129L37.107 32.7821L37.4132 32.4516L39.4955 34.9142H38.9571V34.9129Z" fill="black"/>
<path d="M42.258 34.9499C41.9352 34.9499 41.6366 34.8963 41.361 34.7879C41.0854 34.6794 40.8468 34.5263 40.6439 34.3285C40.4423 34.1308 40.2841 33.8998 40.1718 33.637C40.0596 33.3741 40.0034 33.0845 40.0034 32.7706C40.0034 32.4567 40.0596 32.1671 40.1718 31.9042C40.2841 31.6414 40.4411 31.4105 40.6439 31.2127C40.8468 31.0149 41.0841 30.8618 41.3572 30.7533C41.6302 30.6449 41.9314 30.5913 42.258 30.5913C42.5808 30.5913 42.8781 30.6449 43.1524 30.7533C43.4255 30.8618 43.6641 31.0136 43.8657 31.2101C44.0673 31.4066 44.2255 31.6363 44.3378 31.9017C44.4501 32.1671 44.5062 32.4567 44.5062 32.7719C44.5062 33.087 44.4501 33.3767 44.3378 33.6421C44.2255 33.9075 44.0686 34.1384 43.8657 34.3336C43.6641 34.5301 43.4255 34.682 43.1524 34.7904C42.8794 34.8963 42.5808 34.9499 42.258 34.9499ZM42.258 34.5454C42.5157 34.5454 42.7531 34.5021 42.9713 34.414C43.1894 34.326 43.3796 34.2022 43.5403 34.0402C43.7011 33.8794 43.8274 33.6906 43.9167 33.4762C44.006 33.2619 44.052 33.0258 44.052 32.7693C44.052 32.5116 44.0073 32.2768 43.9167 32.0625C43.8274 31.8481 43.7011 31.6605 43.5403 31.4985C43.3796 31.3377 43.1894 31.2127 42.9713 31.1247C42.7531 31.0366 42.5145 30.9932 42.258 30.9932C42.0003 30.9932 41.7617 31.0366 41.5409 31.1247C41.3202 31.2127 41.1301 31.3377 40.968 31.4985C40.8073 31.6593 40.6797 31.8481 40.5878 32.0625C40.4959 32.2768 40.45 32.5129 40.45 32.7693C40.45 33.022 40.4959 33.2567 40.5878 33.4737C40.6797 33.6906 40.806 33.8794 40.968 34.0402C41.1288 34.2009 41.3202 34.326 41.5409 34.414C41.7629 34.5021 42.0015 34.5454 42.258 34.5454Z" fill="black"/>
<path d="M45.8296 34.9129V30.6257H47.4347C47.7984 30.6257 48.111 30.6844 48.3713 30.8005C48.6328 30.9166 48.8332 31.0838 48.9748 31.3033C49.1151 31.5214 49.1866 31.7856 49.1866 32.0969C49.1866 32.3993 49.1164 32.6596 48.9748 32.8778C48.8344 33.096 48.6328 33.2631 48.3713 33.3805C48.1097 33.4966 47.7971 33.5553 47.4347 33.5553H46.0809L46.2825 33.3473V34.9154H45.8296V34.9129ZM46.2825 33.3818L46.0809 33.1674H47.422C47.8507 33.1674 48.176 33.073 48.3993 32.8854C48.6214 32.6979 48.7336 32.4337 48.7336 32.0956C48.7336 31.7524 48.6226 31.487 48.3993 31.2994C48.176 31.1119 47.8507 31.0174 47.422 31.0174H46.0809L46.2825 30.8031V33.3818ZM48.7566 34.9129L47.6542 33.3575H48.1441L49.2529 34.9129H48.7566Z" fill="black"/>
<path d="M51.0164 34.5212H53.5951V34.9129H50.5635V30.6257H53.5032V31.0174H51.0164V34.5212ZM50.968 32.5422H53.234V32.9275H50.968V32.5422Z" fill="black"/>
<path d="M54.2812 34.9129L56.2411 30.6257H56.6877L58.6475 34.9129H58.1703L56.37 30.8886H56.5537L54.7533 34.9129H54.2812ZM55.0519 33.7684L55.1872 33.4009H57.6804L57.8156 33.7684H55.0519Z" fill="black"/>
<path d="M59.6646 34.9129V30.6257H60.0384L62.996 34.3489H62.7995V30.6257H63.2461V34.9129H62.8723L59.9197 31.1897H60.1162V34.9129H59.6646Z" fill="black"/>
<path d="M51.3809 8.23846C50.4457 9.31663 49.5104 10.3935 48.5764 11.4717C48.3174 11.7817 47.8427 12.2538 47.1129 12.5562C47.0555 12.5805 46.9968 12.6022 46.9394 12.6226V5.20554C46.9777 0.950278 42.3677 1.0868 42.3677 1.0868C43.0465 2.49034 43.0018 3.71269 43.0018 5.20554L43.0465 20.2336C43.0465 21.2288 43.0018 23.9006 42.4123 24.5794H47.5722C47.0746 23.6289 46.9381 22.543 46.9381 21.5019V13.5668C47.1537 13.5451 47.377 13.5106 47.6092 13.4571C48.4577 13.2618 49.1034 12.7783 49.4632 12.458L58.4649 22.9934C60.0229 24.7683 63.177 25.1128 64.6915 23.7207L51.3809 8.23846Z" fill="#2D1901"/>
<path d="M59.7972 7.51247C61.017 7.53672 61.8617 6.8375 62.344 6.10511C63.3366 4.5995 62.8326 2.33088 61.447 1.43644C60.4466 0.790817 57.9062 0.854613 55.7333 3.22148C55.1272 3.88242 54.2302 4.73985 53.3613 5.95582C53.6369 5.77847 54.2838 5.45183 55.1847 5.37527C57.7225 5.15964 57.3423 7.46399 59.7972 7.51247Z" fill="#2D1901"/>
<path d="M19.6445 12.8098C19.6445 6.60874 23.3116 0.949951 30.0103 0.949951C36.709 0.949951 40.376 6.69934 40.376 12.9004C40.376 19.0568 36.7549 24.7603 30.0549 24.7603C23.3562 24.7603 19.6445 19.0568 19.6445 12.8098ZM35.9396 12.7639C35.9396 9.32395 34.8078 1.62875 30.1009 1.62875C25.2127 1.62875 24.081 9.36988 24.081 12.9451C24.081 16.4309 25.1668 24.0802 30.0103 24.0802C34.8538 24.0802 35.9396 16.2957 35.9396 12.7639Z" fill="#2D1901"/>
<path d="M29.9288 10.5081C29.398 11.3948 28.6886 12.1719 27.7266 12.792C28.7614 13.3713 29.5435 14.1649 30.0922 15.1576C30.5247 14.11 31.3005 13.3572 32.2944 12.792C31.2188 12.2331 30.4379 11.4663 29.9288 10.5081Z" fill="#2D1901"/>
<path d="M17.0198 5.20522C17.0198 3.71109 16.9751 2.48873 17.6539 1.08647C17.6539 1.08647 13.0784 1.08648 13.0822 5.20522L13.1077 13.7961C11.8229 12.6478 9.17912 10.739 5.65752 10.5667C5.28367 10.5489 4.9213 10.531 4.5717 10.5144V5.20394C4.58063 1.0852 0 1.08521 0 1.08521C0.678801 2.48874 0.634143 3.71109 0.634143 5.20394L0.678798 20.232C0.678798 21.2272 0.63414 23.899 0.0446548 24.5778H5.20456C4.70694 23.6273 4.57042 22.5414 4.57042 21.5003V13.4606C6.20362 13.1097 9.44834 12.538 13.1077 14.221L13.1256 20.2333C13.1256 21.2285 13.0797 23.9003 12.4915 24.5791H17.6514C17.1538 23.6285 17.0172 22.5427 17.0172 21.5015V5.20522H17.0198Z" fill="#2D1901"/>
</svg>
