<svg width="13" height="15" viewBox="0 0 13 15" fill="none" xmlns="http://www.w3.org/2000/svg">
<path d="M12.3002 6.37207H12.2729C11.015 6.37207 9.8666 5.98926 8.93691 5.30566V10.2002C8.93691 12.6611 6.94082 14.6299 4.47988 14.6299C2.01895 14.6299 0.0501952 12.6611 0.0501952 10.2002C0.0501952 7.73926 2.01895 5.74316 4.47988 5.74316C4.69863 5.74316 4.89004 5.77051 5.10879 5.79785V8.25879C4.89004 8.17676 4.69863 8.14941 4.47988 8.14941C3.35879 8.14941 2.4291 9.0791 2.4291 10.2002C2.4291 11.3213 3.35879 12.251 4.47988 12.251C5.60098 12.251 6.53066 11.3213 6.53066 10.2002V0.629883H8.93691C8.93691 0.657227 8.93691 0.657227 8.93691 0.68457C8.93691 0.875977 8.93691 1.06738 8.9916 1.25879C9.15566 2.16113 9.70254 2.9541 10.4682 3.44629C10.9877 3.80176 11.6166 3.99316 12.2729 3.99316C12.2729 3.99316 12.2729 3.99316 12.3002 3.99316V6.37207Z" fill="#2D1801"/>
</svg>
