<svg width="13" height="13" viewBox="0 0 13 13" fill="none" xmlns="http://www.w3.org/2000/svg">
<path d="M10.4408 2.30957C11.5893 3.45801 12.3002 4.96191 12.3002 6.60254C12.3002 9.93848 9.51113 12.6729 6.14785 12.6729C5.13613 12.6729 4.15176 12.3994 3.24941 11.9346L0.0501952 12.7549L0.897851 9.61035C0.37832 8.70801 0.077539 7.66895 0.077539 6.5752C0.077539 3.23926 2.81191 0.504883 6.14785 0.504883C7.78848 0.504883 9.31973 1.16113 10.4408 2.30957ZM6.14785 11.6338C8.93691 11.6338 11.2611 9.36426 11.2611 6.60254C11.2611 5.23535 10.6869 3.97754 9.72988 3.02051C8.77285 2.06348 7.51504 1.54395 6.1752 1.54395C3.38613 1.54395 1.1166 3.81348 1.1166 6.5752C1.1166 7.53223 1.39004 8.46191 1.88223 9.28223L2.01895 9.47363L1.49941 11.333L3.41348 10.8135L3.57754 10.9229C4.37051 11.3877 5.24551 11.6338 6.14785 11.6338ZM8.93691 7.86035C9.07363 7.94238 9.18301 7.96973 9.21035 8.05176C9.26504 8.10645 9.26504 8.40723 9.12832 8.7627C8.9916 9.11816 8.39004 9.44629 8.1166 9.47363C7.62441 9.55566 7.2416 9.52832 6.28457 9.09082C4.75332 8.43457 3.76895 6.90332 3.68691 6.82129C3.60488 6.71191 3.08535 6.00098 3.08535 5.23535C3.08535 4.49707 3.46816 4.1416 3.60488 3.97754C3.7416 3.81348 3.90566 3.78613 4.01504 3.78613C4.09707 3.78613 4.20645 3.78613 4.28848 3.78613C4.39785 3.78613 4.50723 3.75879 4.64395 4.05957C4.75332 4.36035 5.08145 5.09863 5.10879 5.18066C5.13613 5.2627 5.16348 5.34473 5.10879 5.4541C4.83535 6.02832 4.50723 6.00098 4.67129 6.27441C5.27285 7.28613 5.84707 7.6416 6.74941 8.0791C6.88613 8.16113 6.96816 8.13379 7.07754 8.05176C7.15957 7.94238 7.46035 7.58691 7.54238 7.4502C7.65176 7.28613 7.76113 7.31348 7.89785 7.36816C8.03457 7.42285 8.77285 7.77832 8.93691 7.86035Z" fill="#2D1801"/>
</svg>
